<svg version="1.2" xmlns="http://www.w3.org/2000/svg" viewBox="0 0 171 36" width="171" height="36">
	<title>logo-svg</title>
	<defs>
		<linearGradient id="g1" x2="1" gradientUnits="userSpaceOnUse" gradientTransform="matrix(0,30,-30,0,28,3)">
			<stop offset="0" stop-color="#877eff"/>
			<stop offset=".461" stop-color="#685dff"/>
			<stop offset="1" stop-color="#3121ff"/>
		</linearGradient>
	</defs>
	<style>
		.s0 { fill: url(#g1) } 
		.s1 { fill: #ffffff } 
	</style>
	<path id="Layer" fill-rule="evenodd" class="s0" d="m43 18c0 8.3-6.7 15-15 15-8.3 0-15-6.7-15-15 0-8.3 6.7-15 15-15 8.3 0 15 6.7 15 15zm-15-12.8c-7.1 0-12.8 5.7-12.8 12.8 0 7.1 5.7 12.8 12.8 12.8 7.1 0 12.8-5.7 12.8-12.8 0-7.1-5.7-12.8-12.8-12.8zm8.3 6.1c0 0.8-0.7 1.5-1.6 1.5-0.8 0-1.5-0.7-1.5-1.5 0-0.9 0.7-1.6 1.5-1.6 0.9 0 1.6 0.7 1.6 1.6zm-10.1 0.1c3.7-1 7.4 1.2 8.4 4.8 1 3.7-1.2 7.4-4.8 8.4-3.7 1-7.4-1.2-8.4-4.8-1-3.7 1.2-7.4 4.8-8.4zm-2.7 7.8c0.7 2.5 3.2 4 5.7 3.3 2.5-0.7 4-3.2 3.3-5.7-0.7-2.5-3.2-4-5.7-3.3-2.5 0.7-4 3.2-3.3 5.7z"/>
	<path id="Twine" class="s1" aria-label="Twine"  d="m70.7 9c0-0.6-0.4-1-1-1h-10.9c-0.6 0-1 0.4-1 1v1.9c0 0.6 0.4 1.1 1 1.1h3.5v13.9c0 0.6 0.4 1.1 1 1.1h1.9c0.6 0 1-0.5 1-1.1v-13.9h3.5c0.6 0 1-0.5 1-1.1zm23.7-1.1c-0.5 0-0.9 0.4-1.1 0.9l-2.9 11.1-3-11.1c-0.2-0.5-0.6-0.9-1.1-0.9h-1.9c-0.5 0-1 0.4-1.1 0.9l-2.9 11.1-3.1-11.1c-0.1-0.5-0.6-0.9-1.1-0.9h-1.8c-0.6 0-1 0.5-1 1.1 0 0.1 0 0.2 0 0.3l4.7 16.9c0.1 0.4 0.5 0.8 1 0.8h2.3c0.6 0 1-0.3 1.1-0.9l2.8-10.3 2.8 10.3c0.1 0.5 0.5 0.9 1.1 0.9h2.2c0.6 0 1-0.3 1.2-0.9l4.7-16.8c0.1-0.3 0.1-0.7-0.1-1-0.2-0.2-0.5-0.4-0.8-0.4zm8.2-0.1c-0.6 0-1.1 0.5-1.1 1.1v1.7c0 0.6 0.5 1.1 1.1 1.1h1.5v11.4h-1.5c-0.6 0-1.1 0.5-1.1 1.1v1.7c0 0.6 0.5 1.1 1.1 1.1h6.9c0.6 0 1.1-0.5 1.1-1.1v-1.7c0-0.6-0.5-1.1-1.1-1.1h-1.5v-11.4h1.5c0.6 0 1.1-0.5 1.1-1.1v-1.7c0-0.6-0.5-1.1-1.1-1.1zm21.7 18.5c0.3 0.4 0.6 0.7 1.1 0.7h1.9c0.7 0 1.3-0.6 1.3-1.3v-16.7c0-0.6-0.5-1.1-1-1.1h-1.8c-0.5 0-1 0.5-1 1.1v10.1l-5.9-10.6c-0.3-0.4-0.6-0.6-1.1-0.6h-1.9c-0.7 0-1.2 0.6-1.2 1.3v16.7c0 0.6 0.4 1.1 1 1.1h1.7c0.6 0 1-0.5 1-1.1v-10.1zm18.9-14.4c0.6 0 1-0.5 1-1.1v-1.8c0-0.6-0.4-1.1-1-1.1h-8.1c-0.4 0-0.9 0.2-1.1 0.5-0.3 0.3-0.5 0.7-0.5 1.1v15.8c0 0.9 0.7 1.6 1.6 1.6h8.1c0.6 0 1-0.4 1-1v-1.9c0-0.6-0.4-1.1-1-1.1h-5.7v-3.9h4.1c0.6 0 1-0.4 1-1v-1.8c0-0.6-0.4-1.1-1-1.1h-4.1v-3.2z"/>
</svg>